<?xml version="1.0" encoding="UTF-8"?>
<svg xmlns="http://www.w3.org/2000/svg" height="165" width="165" class="pyqrcode"><path transform="scale(5)" stroke="#000" class="pyqrline" d="M4 4.5h7m1 0h1m2 0h2m1 0h3m1 0h7m-25 1h1m5 0h1m1 0h5m1 0h1m3 0h1m5 0h1m-25 1h1m1 0h3m1 0h1m1 0h2m2 0h4m2 0h1m1 0h3m1 0h1m-25 1h1m1 0h3m1 0h1m3 0h2m1 0h2m1 0h1m1 0h1m1 0h3m1 0h1m-25 1h1m1 0h3m1 0h1m2 0h4m1 0h1m3 0h1m1 0h3m1 0h1m-25 1h1m5 0h1m1 0h1m1 0h3m2 0h1m2 0h1m5 0h1m-25 1h7m1 0h1m1 0h1m1 0h1m1 0h1m1 0h1m1 0h7m-17 1h1m5 0h2m-14 1h3m1 0h1m1 0h1m2 0h1m1 0h1m1 0h5m2 0h3m-22 1h1m3 0h1m5 0h1m4 0h1m1 0h3m1 0h1m-25 1h3m3 0h1m1 0h1m3 0h1m1 0h1m1 0h4m1 0h1m2 0h1m-24 1h2m1 0h1m2 0h1m1 0h1m3 0h2m2 0h2m1 0h3m-23 1h1m1 0h2m2 0h1m1 0h1m1 0h1m1 0h1m1 0h2m3 0h1m1 0h2m-23 1h1m1 0h1m1 0h2m4 0h1m2 0h1m1 0h1m2 0h4m-22 1h1m3 0h1m1 0h3m1 0h1m1 0h1m1 0h2m2 0h2m1 0h1m-22 1h1m1 0h1m1 0h1m2 0h3m1 0h1m1 0h1m1 0h3m3 0h4m-25 1h1m2 0h2m1 0h6m2 0h1m1 0h5m2 0h2m-17 1h1m2 0h1m1 0h1m2 0h1m3 0h2m2 0h1m-25 1h7m5 0h2m2 0h1m1 0h1m1 0h1m1 0h1m1 0h1m-25 1h1m5 0h1m2 0h1m4 0h1m1 0h1m3 0h3m-23 1h1m1 0h3m1 0h1m1 0h2m2 0h2m1 0h6m1 0h1m-23 1h1m1 0h3m1 0h1m1 0h3m2 0h5m2 0h3m1 0h1m-25 1h1m1 0h3m1 0h1m1 0h1m9 0h1m2 0h1m2 0h1m-25 1h1m5 0h1m2 0h1m1 0h4m2 0h1m1 0h1m1 0h1m-22 1h7m3 0h1m2 0h2m2 0h6m1 0h1"/></svg>
